<svg xmlns="http://www.w3.org/2000/svg" viewBox="0 0 64 64" role="img" aria-label="Little Knowledge Planet favicon">
  <rect width="64" height="64" rx="14" fill="#ecfeff"/>
  <circle cx="32" cy="34" r="18" fill="#38bdf8"/>
  <path fill="#0f766e" d="M17 35c5 3 10 4 15 4 6 0 11-2 15-5 1 2 2 4 2 6-4 6-10 10-17 10-8 0-15-5-18-12 1-1 2-2 3-3Z"/>
  <path fill="#f59e0b" d="M48 12l2 5 5 2-5 2-2 5-2-5-5-2 5-2 2-5Z"/>
  <path fill="#fbbf24" d="M21 12l1 3 3 1-3 1-1 3-1-3-3-1 3-1 1-3Z"/>
  <path fill="none" stroke="#f97316" stroke-linecap="round" stroke-width="5" d="M12 32c10-9 31-13 43-5"/>
  <path fill="none" stroke="#0f172a" stroke-linecap="round" stroke-opacity=".12" stroke-width="3" d="M18 28c6-4 15-7 25-7"/>
</svg>
